# xmcd
#
# Track frame offsets:
# 150
# 15857
# 36550
# 37157
# 41061
# 58742
# 60394
# 75089
# 104427
# 115368
# 119938
# 125100
# 145870
# 166870
#
# Disc length: 2428 seconds
#
# Revision: 0
# Processed by: cddbd v1.4PL0 Copyright (c) Steve Scherf et al.
# Submitted via: Audion 3.0.2 (http://www.panic.com/audion/)
#
DISCID=c5097a0e
DTITLE=Guetto Blaster - Guetto Blaster
DYEAR=1900
DGENRE=
TTITLE0=Money maker
TTITLE1=Freestyler
TTITLE2=En mi estilo
TTITLE3=No hay fallo
TTITLE4=Saco roto
TTITLE5=Say Elche
TTITLE6=Su mision
TTITLE7=Meco loco
TTITLE8=Kamasutra
TTITLE9=Timbo
TTITLE10=Jordi it
TTITLE11=Guetto Blaster
TTITLE12=Mente cenicero
TTITLE13=Pero que
EXTD=
EXTT0=
EXTT1=
EXTT2=
EXTT3=
EXTT4=
EXTT5=
EXTT6=
EXTT7=
EXTT8=
EXTT9=
EXTT10=
EXTT11=
EXTT12=
EXTT13=
PLAYORDER=
